FFmpeg version SVN-r25716, Copyright (c) 2000-2010 the FFmpeg developers  built on Nov 10 2010 12:23:18 with gcc 4.1.2 20080704 (Red Hat 4.1.2-48)  configuration: --enable-libmp3lame --enable-shared --disable-mmx --arch=x86_64  libavutil     50.33. 0 / 50.33. 0  libavcore      0.12. 1 /  0.12. 1  libavcodec    52.94. 4 / 52.94. 4  libavformat   52.84. 0 / 52.84. 0  libavdevice   52. 2. 2 / 52. 2. 2  libavfilter    1.59. 0 /  1.59. 0  libswscale     0.12. 0 /  0.12. 0Input #0, avi, from '/RAID10/data/converted_video_files/11958.avi':  Duration: 00:00:14.04, start: 0.000000, bitrate: 4241 kb/s    Stream #0.0: Video: mpeg4, yuv420p, 704x480 [PAR 1:1 DAR 22:15], 25 tbr, 29.97 tbn, 25 tbc    Stream #0.1: Audio: ac3, 48000 Hz, stereo, s16, 256 kb/s[buffer @ 0x5778250] w:704 h:480 pixfmt:yuv420pOutput #0, flv, to '/RAID10/data/converted_video_files/11958.flv':  Metadata:    encoder         : Lavf52.84.0    Stream #0.0: Video: flv, yuv420p, 704x480 [PAR 1:1 DAR 22:15], q=2-31, 600 kb/s, 1k tbn, 24 tbc    Stream #0.1: Audio: libmp3lame, 22050 Hz, stereo, s16, 96 kb/sStream mapping:  Stream #0.0 -> #0.0  Stream #0.1 -> #0.1Press [q] to stop encodingframe=   27 fps=  0 q=5.8 size=     229kB time=1.17 bitrate=1609.4kbits/s dup=0 drop=6    frame=   65 fps= 61 q=6.6 size=     397kB time=2.75 bitrate=1184.5kbits/s dup=0 drop=16    frame=   91 fps= 58 q=7.0 size=     502kB time=3.83 bitrate=1073.2kbits/s dup=0 drop=22    frame=  130 fps= 62 q=7.4 size=     655kB time=5.46 bitrate= 982.8kbits/s dup=0 drop=32    frame=  166 fps= 64 q=7.4 size=     792kB time=6.96 bitrate= 932.5kbits/s dup=0 drop=41    frame=  202 fps= 66 q=7.5 size=     925kB time=8.46 bitrate= 895.8kbits/s dup=0 drop=50    frame=  247 fps= 69 q=8.1 size=    1099kB time=10.33 bitrate= 871.1kbits/s dup=0 drop=61    frame=  286 fps= 70 q=8.4 size=    1234kB time=11.96 bitrate= 845.6kbits/s dup=0 drop=71    frame=  326 fps= 71 q=7.6 size=    1388kB time=13.62 bitrate= 834.6kbits/s dup=0 drop=81    frame=  337 fps= 71 q=5.9 Lsize=    1430kB time=14.08 bitrate= 831.8kbits/s dup=0 drop=84    video:1251kB audio:165kB global headers:0kB muxing overhead 0.989664%